<svg width="56" height="56" viewBox="0 0 56 56" fill="none" xmlns="http://www.w3.org/2000/svg">
<rect x="4" y="4" width="48" height="48" rx="24" fill="#FEE4E2"/>
<path d="M32 33L37 28M37 28L32 23M37 28H25M28 33C28 33.93 28 34.395 27.8978 34.7765C27.6204 35.8117 26.8117 36.6204 25.7765 36.8978C25.395 37 24.93 37 24 37H23.5C22.1022 37 21.4033 37 20.8519 36.7716C20.1169 36.4672 19.5328 35.8831 19.2284 35.1481C19 34.5967 19 33.8978 19 32.5V23.5C19 22.1022 19 21.4033 19.2284 20.8519C19.5328 20.1169 20.1169 19.5328 20.852 19.2284C21.4033 19 22.1022 19 23.5 19H24C24.93 19 25.395 19 25.7765 19.1022C26.8117 19.3796 27.6204 20.1883 27.8978 21.2235C28 21.605 28 22.07 28 23" stroke="#F04438" stroke-width="1.67" stroke-linecap="round" stroke-linejoin="round"/>
<rect x="4" y="4" width="48" height="48" rx="24" stroke="#FEF3F2" stroke-width="8"/>
</svg>
